<?xml version="1.0" encoding="utf-8"?>
<!-- Generator: Adobe Illustrator 19.0.0, SVG Export Plug-In . SVG Version: 6.00 Build 0)  -->
<svg version="1.1" id="Layer_1" xmlns="http://www.w3.org/2000/svg" xmlns:xlink="http://www.w3.org/1999/xlink" x="0px" y="0px"
	 viewBox="0 0 248 248" style="enable-background:new 0 0 248 248;" xml:space="preserve">
<style type="text/css">
	.st0{opacity:0.3;fill:#A6A6CE;}
	.st1{fill:none;stroke:#8788B2;stroke-width:2;stroke-linecap:round;stroke-linejoin:round;stroke-miterlimit:10;}
</style>
<polyline id="XMLID_10_" class="st0" points="196.7,163.1 196.7,51.3 51.3,51.3 51.3,163.1 "/>
<path id="XMLID_9_" class="st1" d="M196.7,196.7c0,9.3-7.5,16.8-16.8,16.8H68.1c-9.3,0-16.8-7.5-16.8-16.8V17.8
	C51.3,8.5,58.8,1,68.1,1h111.8c9.3,0,16.8,7.5,16.8,16.8V196.7z"/>
<polyline id="XMLID_8_" class="st1" points="124,213.5 124,235.8 124,247 "/>
<path id="XMLID_7_" class="st1" d="M235.8,146.4v83.9c0,9.3-7.5,16.8-16.8,16.8H90.5H29c-9.3,0-16.8-7.5-16.8-16.8V124"/>
<path id="XMLID_6_" class="st1" d="M29,107.2c0-9.3-7.5-16.8-16.8-16.8H1V124h11.2C21.4,124,29,116.5,29,107.2z"/>
<path id="XMLID_5_" class="st1" d="M219,129.6c0-9.3,7.5-16.8,16.8-16.8H247v33.5h-11.2C226.6,146.4,219,138.9,219,129.6z"/>
<line id="XMLID_4_" class="st1" x1="51.3" y1="45.7" x2="196.7" y2="45.7"/>
<line id="XMLID_3_" class="st1" x1="51.3" y1="168.7" x2="196.7" y2="168.7"/>
<line id="XMLID_2_" class="st1" x1="112.8" y1="23.4" x2="135.2" y2="23.4"/>
<line id="XMLID_1_" class="st1" x1="118.4" y1="191.1" x2="129.6" y2="191.1"/>
</svg>
