<?xml version="1.0" encoding="utf-8"?>
<!-- Generator: Adobe Illustrator 19.0.0, SVG Export Plug-In . SVG Version: 6.00 Build 0)  -->
<svg version="1.1" id="Layer_1" xmlns="http://www.w3.org/2000/svg" xmlns:xlink="http://www.w3.org/1999/xlink" x="0px" y="0px"
	 viewBox="0 0 248.8 226.4" style="enable-background:new 0 0 248.8 226.4;" xml:space="preserve">
<style type="text/css">
	.st0{fill:none;stroke:#8788B2;stroke-width:2;stroke-linecap:round;stroke-linejoin:round;stroke-miterlimit:10;}
	.st1{opacity:0.3;fill:#A6A6CE;}
</style>
<polyline id="XMLID_8_" class="st0" points="17.8,146.8 17.8,225.4 231,225.4 231,146.8 "/>
<path id="XMLID_7_" class="st0" d="M146.8,146.8H232c8.7,0,15.8-7.1,15.8-15.8V34.7H1v96.4c0,8.7,7.1,15.8,15.8,15.8H102"/>
<polyline id="XMLID_6_" class="st0" points="169.3,34.7 169.3,1 152.4,1 96.4,1 79.5,1 79.5,34.7 "/>
<rect id="XMLID_5_" x="102" y="124.4" class="st0" width="44.9" height="44.9"/>
<path id="XMLID_4_" class="st1" d="M1,34.7v96.4c0,8.7,7.1,15.8,15.8,15.8H102v-22.4h44.9v22.4H232c8.7,0,15.8-7.1,15.8-15.8V34.7H1
	z"/>
<line id="XMLID_3_" class="st0" x1="113.2" y1="124.4" x2="113.2" y2="34.7"/>
<line id="XMLID_2_" class="st0" x1="135.6" y1="124.4" x2="135.6" y2="34.7"/>
<path id="XMLID_1_" class="st0" d="M135.6,169.3v16.8c0,6.2-5,11.2-11.2,11.2c-6.2,0-11.2-5-11.2-11.2v-16.8"/>
</svg>
