<?xml version="1.0" encoding="utf-8"?>
<!-- Generator: Adobe Illustrator 19.0.0, SVG Export Plug-In . SVG Version: 6.00 Build 0)  -->
<svg version="1.1" id="Layer_1" xmlns="http://www.w3.org/2000/svg" xmlns:xlink="http://www.w3.org/1999/xlink" x="0px" y="0px"
	 viewBox="0 0 251.8 256.2" style="enable-background:new 0 0 251.8 256.2;" xml:space="preserve">
<style type="text/css">
	.st0{opacity:0.3;fill:#A6A6CE;}
	.st1{fill:none;stroke:#8788B2;stroke-width:2;stroke-linecap:square;stroke-miterlimit:10;}
	.st2{fill:none;stroke:#8788B2;stroke-width:2;stroke-miterlimit:10;}
</style>
<path id="XMLID_4_" class="st0" d="M223,106c25,51.7,3.3,113.9-48.4,138.8c-51.7,25-113.9,3.3-138.8-48.4
	c-25-51.7-3.3-113.9,48.4-138.8C135.8,32.6,198,54.3,223,106z"/>
<path id="XMLID_3_" class="st1" d="M223,106c25,51.7,3.3,113.9-48.4,138.8c-51.7,25-113.9,3.3-138.8-48.4
	c-25-51.7-3.3-113.9,48.4-138.8C135.8,32.6,198,54.3,223,106z"/>
<circle id="XMLID_2_" class="st1" cx="227.7" cy="24.1" r="23.1"/>
<path id="XMLID_1_" class="st2" d="M25.4,150.4c-19.2,17.5-28,33-23,43.4c9.7,20.1,70,11.1,134.6-20.1l5.2-2.5
	c64.6-31.2,109.1-72.8,99.4-93c-5-10.4-23.5-13-49.2-8.8"/>
</svg>
