<?xml version="1.0" encoding="utf-8"?>
<!-- Generator: Adobe Illustrator 19.0.0, SVG Export Plug-In . SVG Version: 6.00 Build 0)  -->
<svg version="1.1" id="Layer_1" xmlns="http://www.w3.org/2000/svg" xmlns:xlink="http://www.w3.org/1999/xlink" x="0px" y="0px"
	 viewBox="0 0 261.5 249.1" style="enable-background:new 0 0 261.5 249.1;" xml:space="preserve">
<style type="text/css">
	.st0{opacity:0.3;fill:#A6A6CE;}
	.st1{fill:none;stroke:#8788B2;stroke-width:2;stroke-linecap:round;stroke-linejoin:round;stroke-miterlimit:10;}
</style>
<path class="st0" d="M93.7,99.9l-6.2-24.7H38.1l-6.2,24.7H1v148.3h259.5V99.9H93.7z M180.2,223.4c-27.3,0-49.4-22.1-49.4-49.4
	s22.1-49.4,49.4-49.4s49.4,22.1,49.4,49.4S207.5,223.4,180.2,223.4z"/>
<polygon id="XMLID_9_" class="st1" points="38.1,75.1 31.9,99.9 1,99.9 1,248.1 260.5,248.1 260.5,99.9 93.7,99.9 87.5,75.1 "/>
<polyline id="XMLID_8_" class="st1" points="217.2,99.9 217.2,62.8 174,62.8 174,99.9 "/>
<rect id="XMLID_7_" x="143.1" y="1" class="st1" width="105" height="61.8"/>
<line id="XMLID_6_" class="st1" x1="167.8" y1="31.9" x2="223.4" y2="31.9"/>
<line id="XMLID_5_" class="st1" x1="44.2" y1="50.4" x2="81.3" y2="50.4"/>
<line id="XMLID_4_" class="st1" x1="44.2" y1="161.6" x2="81.3" y2="161.6"/>
<line id="XMLID_3_" class="st1" x1="44.2" y1="186.4" x2="81.3" y2="186.4"/>
<circle id="XMLID_2_" class="st1" cx="180.2" cy="174" r="49.4"/>
<path id="XMLID_1_" class="st1" d="M198.7,174c0-10.2-8.3-18.5-18.5-18.5c-10.2,0-18.5,8.3-18.5,18.5c0,10.2,8.3,18.5,18.5,18.5
	C190.4,192.5,198.7,184.2,198.7,174z"/>
</svg>
