<?xml version="1.0" encoding="utf-8"?>
<!-- Generator: Adobe Illustrator 19.0.0, SVG Export Plug-In . SVG Version: 6.00 Build 0)  -->
<svg version="1.1" id="Layer_1" xmlns="http://www.w3.org/2000/svg" xmlns:xlink="http://www.w3.org/1999/xlink" x="0px" y="0px"
	 viewBox="0 0 251.7 251.7" style="enable-background:new 0 0 251.7 251.7;" xml:space="preserve">
<style type="text/css">
	.st0{opacity:0.3;fill:#A6A6CE;}
	.st1{fill:none;stroke:#8788B2;stroke-width:2;stroke-linecap:round;stroke-linejoin:round;stroke-miterlimit:10;}
</style>
<path id="XMLID_11_" class="st0" d="M1,40.7v107.8c0,9.4,7.6,17,17,17h215.6c9.4,0,17-7.6,17-17V40.7"/>
<path id="XMLID_10_" class="st1" d="M18,1C8.6,1,1,8.6,1,18v130.5c0,9.4,7.6,17,17,17h215.6c9.4,0,17-7.6,17-17V18
	c0-9.4-7.6-17-17-17H18z"/>
<line id="XMLID_9_" class="st1" x1="142.9" y1="216.6" x2="142.9" y2="165.6"/>
<line id="XMLID_8_" class="st1" x1="108.8" y1="165.6" x2="108.8" y2="216.6"/>
<path id="XMLID_7_" class="st1" d="M233.6,222.3c0,15.7-12.7,28.4-28.4,28.4c-15.7,0-28.4-12.7-28.4-28.4v-34h56.7V222.3z"/>
<line id="XMLID_6_" class="st1" x1="205.3" y1="188.3" x2="205.3" y2="57.7"/>
<polyline id="XMLID_5_" class="st1" points="205.3,103.1 154.2,103.1 154.2,80.4 "/>
<polyline id="XMLID_4_" class="st1" points="205.3,142.9 171.2,142.9 171.2,120.2 "/>
<line id="XMLID_3_" class="st1" x1="97.5" y1="216.6" x2="154.2" y2="216.6"/>
<polyline id="XMLID_2_" class="st1" points="205.3,74.8 228,74.8 228,63.4 "/>
<line id="XMLID_1_" class="st1" x1="1" y1="35" x2="250.7" y2="35"/>
</svg>
