<?xml version="1.0" encoding="utf-8"?>
<!-- Generator: Adobe Illustrator 19.0.0, SVG Export Plug-In . SVG Version: 6.00 Build 0)  -->
<svg version="1.1" id="Layer_1" xmlns="http://www.w3.org/2000/svg" xmlns:xlink="http://www.w3.org/1999/xlink" x="0px" y="0px"
	 viewBox="0 0 250.3 239" style="enable-background:new 0 0 250.3 239;" xml:space="preserve">
<style type="text/css">
	.st0{opacity:0.3;fill:#A6A6CE;}
	.st1{fill:none;stroke:#8788B2;stroke-width:2;stroke-linecap:round;stroke-linejoin:round;stroke-miterlimit:10;}
	.st2{fill:none;stroke:#8788B2;stroke-miterlimit:10;}
	.st3{fill:#8788B2;}
</style>
<path id="XMLID_8_" class="st0" d="M153.4,57.4L170.3,1l-45.1,16.9L80,1l16.9,56.4c-34.3,0-62.1,27.8-62.1,62.1v28.2
	c0,49.9,40.4,90.3,90.3,90.3s90.3-40.4,90.3-90.3v-28.2C215.4,85.2,187.6,57.4,153.4,57.4z"/>
<path id="XMLID_7_" class="st1" d="M49.1,80C22.5,80,1,101.5,1,128.1c0,60.7,49.2,110,110,110h8.6"/>
<path id="XMLID_6_" class="st1" d="M201.2,80c26.5,0,48.1,21.5,48.1,48.1c0,60.7-49.2,110-110,110h-8.6"/>
<path id="XMLID_5_" class="st2" d="M201.2,80c26.5,0,48.1,21.5,48.1,48.1c0,60.7-49.2,110-110,110h-8.6"/>
<path id="XMLID_4_" class="st1" d="M153.4,57.4L170.3,1l-45.1,16.9L80,1l16.9,56.4c-34.3,0-62.1,27.8-62.1,62.1v28.2
	c0,49.9,40.4,90.3,90.3,90.3s90.3-40.4,90.3-90.3v-28.2C215.4,85.2,187.6,57.4,153.4,57.4z"/>
<line id="XMLID_3_" class="st1" x1="96.9" y1="57.4" x2="153.4" y2="57.4"/>
<line id="XMLID_2_" class="st1" x1="125.1" y1="17.9" x2="125.1" y2="34.9"/>
<g>
	<path class="st3" d="M121,184.2v-9c-5.9-0.2-11.7-1.9-15-4.1l2.5-8.7c3.6,2.1,8.8,4.1,14.5,4.1c5.8,0,9.8-2.9,9.8-7.3
		c0-4.2-3.2-6.9-10.1-9.4c-9.7-3.5-16.1-8-16.1-16.6c0-8,5.6-14.1,14.9-15.8v-9.1h7.6v8.6c5.8,0.2,9.8,1.6,12.8,3.1l-2.5,8.5
		c-2.2-1-6.3-3.2-12.6-3.2c-6.5,0-8.8,3.3-8.8,6.5c0,3.8,3.3,5.9,11.2,9.1c10.4,3.9,15,8.9,15,17.2c0,7.9-5.5,14.9-15.7,16.5v9.6
		H121z"/>
</g>
</svg>
