<svg xmlns="http://www.w3.org/2000/svg" xmlns:xlink="http://www.w3.org/1999/xlink" preserveAspectRatio="xMidYMid" width="55" height="64" viewBox="0 0 55 64">
  <defs>
    <style>

      .cls-3 {
        fill: #000000;
      }
    </style>
  </defs>
  <g id="group-9svg">
    <path d="M55.000,53.513 C55.000,58.761 50.747,63.015 45.500,63.015 C45.500,63.015 9.500,63.015 9.500,63.015 C4.253,63.015 -0.000,58.761 -0.000,53.513 C-0.000,53.513 -0.000,9.499 -0.000,9.499 C-0.000,4.251 4.253,-0.004 9.500,-0.004 C9.500,-0.004 45.500,-0.004 45.500,-0.004 C50.747,-0.004 55.000,4.251 55.000,9.499 C55.000,9.499 55.000,53.513 55.000,53.513 ZM52.000,9.499 C52.000,5.908 49.090,2.997 45.500,2.997 C45.500,2.997 9.500,2.997 9.500,2.997 C5.910,2.997 3.000,5.908 3.000,9.499 C3.000,9.499 3.000,53.513 3.000,53.513 C3.000,57.104 5.910,60.015 9.500,60.015 C9.500,60.015 45.500,60.015 45.500,60.015 C49.090,60.015 52.000,57.104 52.000,53.513 C52.000,53.513 52.000,9.499 52.000,9.499 Z" id="path-1" class="cls-3" fill-rule="evenodd"/>
    <path d="M55.000,51.512 C55.000,52.341 54.328,53.012 53.500,53.012 C53.500,53.012 1.500,53.012 1.500,53.012 C0.672,53.012 -0.000,52.341 -0.000,51.512 C-0.000,51.512 -0.000,9.499 -0.000,9.499 C-0.000,8.670 0.672,7.999 1.500,7.999 C1.500,7.999 53.500,7.999 53.500,7.999 C54.328,7.999 55.000,8.670 55.000,9.499 C55.000,9.499 55.000,51.512 55.000,51.512 ZM3.000,50.011 C3.000,50.011 52.000,50.011 52.000,50.011 C52.000,50.011 52.000,11.000 52.000,11.000 C52.000,11.000 3.000,11.000 3.000,11.000 C3.000,11.000 3.000,50.011 3.000,50.011 Z" id="path-2" class="cls-3" fill-rule="evenodd"/>
    <path d="M29.904,5.362 C29.904,6.466 29.009,7.362 27.904,7.362 C26.800,7.362 25.904,6.466 25.904,5.362 C25.904,4.257 26.800,3.361 27.904,3.361 C29.009,3.361 29.904,4.257 29.904,5.362 Z" id="path-3" class="cls-3" fill-rule="evenodd"/>
    <path d="M30.573,57.014 C30.573,57.014 25.573,57.014 25.573,57.014 C24.745,57.014 24.073,56.342 24.073,55.513 C24.073,54.685 24.745,54.013 25.573,54.013 C25.573,54.013 30.573,54.013 30.573,54.013 C31.401,54.013 32.073,54.685 32.073,55.513 C32.073,56.342 31.401,57.014 30.573,57.014 Z" id="path-4" class="cls-3" fill-rule="evenodd"/>
    <path d="M15.379,42.273 C14.995,42.273 14.611,42.126 14.318,41.833 C13.732,41.247 13.732,40.298 14.318,39.711 C14.318,39.711 37.219,16.805 37.219,16.805 C37.805,16.219 38.754,16.219 39.340,16.805 C39.926,17.391 39.926,18.341 39.340,18.927 C39.340,18.927 16.439,41.833 16.439,41.833 C16.146,42.126 15.763,42.273 15.379,42.273 Z" id="path-5" class="cls-3" fill-rule="evenodd"/>
    <path d="M27.997,40.871 C27.613,40.871 27.229,40.724 26.936,40.431 C26.351,39.845 26.351,38.896 26.936,38.310 C26.936,38.310 33.573,31.671 33.573,31.671 C34.159,31.085 35.108,31.085 35.694,31.671 C36.280,32.257 36.280,33.207 35.694,33.793 C35.694,33.793 29.058,40.431 29.058,40.431 C28.765,40.724 28.381,40.871 27.997,40.871 Z" id="path-6" class="cls-3" fill-rule="evenodd"/>
  </g>
</svg>
