<svg xmlns="http://www.w3.org/2000/svg" xmlns:xlink="http://www.w3.org/1999/xlink" preserveAspectRatio="xMidYMid" width="64" height="52" viewBox="0 0 64 52">
  <defs>
    <style>

      .cls-3 {
        fill: #000000;
      }
    </style>
  </defs>
  <g id="group-13svg">
    <path d="M61.511,51.023 C61.511,51.023 1.511,51.023 1.511,51.023 C0.683,51.023 0.011,50.351 0.011,49.522 C0.011,48.694 0.683,48.022 1.511,48.022 C1.511,48.022 61.511,48.022 61.511,48.022 C62.339,48.022 63.011,48.694 63.011,49.522 C63.011,50.351 62.339,51.023 61.511,51.023 Z" id="path-1" class="cls-3" fill-rule="evenodd"/>
    <path d="M62.937,35.518 C62.937,40.766 58.684,45.021 53.437,45.021 C53.437,45.021 10.437,45.021 10.437,45.021 C5.191,45.021 0.937,40.766 0.937,35.518 C0.937,35.518 0.937,9.510 0.937,9.510 C0.937,4.262 5.191,0.007 10.437,0.007 C10.437,0.007 53.437,0.007 53.437,0.007 C58.684,0.007 62.937,4.262 62.937,9.510 C62.937,9.510 62.937,35.518 62.937,35.518 ZM59.937,9.510 C59.937,5.919 57.027,3.008 53.437,3.008 C53.437,3.008 10.437,3.008 10.437,3.008 C6.848,3.008 3.937,5.919 3.937,9.510 C3.937,9.510 3.937,35.518 3.937,35.518 C3.937,39.109 6.848,42.020 10.437,42.020 C10.437,42.020 53.437,42.020 53.437,42.020 C57.027,42.020 59.937,39.109 59.937,35.518 C59.937,35.518 59.937,9.510 59.937,9.510 Z" id="path-2" class="cls-3" fill-rule="evenodd"/>
    <path d="M52.203,45.021 C52.203,45.021 12.060,45.021 12.060,45.021 C6.191,45.021 1.417,40.309 1.417,34.518 C1.417,33.689 2.089,33.017 2.917,33.017 C2.917,33.017 61.346,33.017 61.346,33.017 C62.174,33.017 62.846,33.689 62.846,34.518 C62.846,40.309 58.071,45.021 52.203,45.021 ZM4.570,36.018 C5.280,39.438 8.369,42.020 12.060,42.020 C12.060,42.020 52.203,42.020 52.203,42.020 C55.894,42.020 58.982,39.438 59.692,36.018 C59.692,36.018 4.570,36.018 4.570,36.018 Z" id="path-3" class="cls-3" fill-rule="evenodd"/>
    <path d="M35.428,30.308 C35.044,30.308 34.660,30.162 34.367,29.869 C33.781,29.283 33.781,28.333 34.367,27.747 C34.367,27.747 42.648,19.464 42.648,19.464 C43.234,18.878 44.184,18.878 44.769,19.464 C45.355,20.050 45.355,21.000 44.769,21.586 C44.769,21.586 36.488,29.869 36.488,29.869 C36.195,30.162 35.811,30.308 35.428,30.308 Z" id="path-4" class="cls-3" fill-rule="evenodd"/>
    <path d="M22.598,31.711 C22.214,31.711 21.830,31.564 21.537,31.271 C20.951,30.685 20.951,29.736 21.537,29.150 C21.537,29.150 39.478,11.202 39.478,11.202 C40.064,10.616 41.014,10.616 41.600,11.202 C42.185,11.788 42.185,12.737 41.600,13.324 C41.600,13.324 23.658,31.271 23.658,31.271 C23.365,31.564 22.981,31.711 22.598,31.711 Z" id="path-5" class="cls-3" fill-rule="evenodd"/>
  </g>
</svg>
